<svg width="512" height="512" viewBox="0 0 512 512" fill="none" xmlns="http://www.w3.org/2000/svg">
<path d="M452.776 185.92C447.847 185.923 442.994 187.145 438.65 189.476C434.307 191.808 430.607 195.177 427.88 199.284H397.972L398.468 195.824H400.068C406.006 195.745 411.675 193.331 415.846 189.104C420.017 184.876 422.356 179.177 422.356 173.238C422.356 167.299 420.017 161.6 415.846 157.373C411.675 153.145 406.006 150.731 400.068 150.652H388.18V141.636H400.068C401.925 141.636 403.705 140.899 405.018 139.586C406.331 138.273 407.068 136.493 407.068 134.636C407.068 132.78 406.331 130.999 405.018 129.686C403.705 128.374 401.925 127.636 400.068 127.636H374.536C375.13 125.799 375.445 123.883 375.472 121.952C375.467 116.733 373.392 111.73 369.701 108.039C366.011 104.349 361.007 102.273 355.788 102.268H285.536C280.317 102.273 275.314 104.349 271.624 108.039C267.933 111.73 265.858 116.733 265.852 121.952C265.879 123.883 266.195 125.799 266.788 127.636H245.2C245.794 125.799 246.109 123.883 246.136 121.952C246.131 116.733 244.056 111.73 240.365 108.039C236.675 104.349 231.671 102.273 226.452 102.268H156.212C150.993 102.273 145.99 104.349 142.3 108.039C138.609 111.73 136.534 116.733 136.528 121.952C136.555 123.883 136.871 125.799 137.464 127.636H111.932C110.076 127.636 108.295 128.374 106.983 129.686C105.67 130.999 104.932 132.78 104.932 134.636C104.932 136.493 105.67 138.273 106.983 139.586C108.295 140.899 110.076 141.636 111.932 141.636H123.82V150.652H111.932C105.994 150.731 100.326 153.145 96.1549 157.373C91.9837 161.6 89.6449 167.299 89.6449 173.238C89.6449 179.177 91.9837 184.876 96.1549 189.104C100.326 193.331 105.994 195.745 111.932 195.824H113.532L114.028 199.284H84.1204C80.5658 193.932 75.3824 189.866 69.3373 187.688C63.2923 185.511 56.7068 185.338 50.5555 187.194C44.4043 189.05 39.0142 192.838 35.1831 197.996C31.3519 203.154 29.2832 209.409 29.2832 215.834C29.2832 222.259 31.3519 228.514 35.1831 233.672C39.0142 238.83 44.4043 242.618 50.5555 244.474C56.7068 246.331 63.2923 246.157 69.3373 243.98C75.3824 241.802 80.5658 237.737 84.1204 232.384H118.8L119.072 234.244C121.338 249.453 127.412 263.841 136.73 276.073C146.048 288.304 158.307 297.981 172.368 304.204L129.02 475.516C128.771 476.415 128.703 477.354 128.822 478.28C128.94 479.205 129.243 480.097 129.711 480.904C130.179 481.71 130.804 482.415 131.548 482.977C132.293 483.539 133.142 483.947 134.046 484.176C134.951 484.405 135.892 484.451 136.814 484.311C137.736 484.171 138.621 483.848 139.417 483.362C140.213 482.875 140.903 482.234 141.448 481.477C141.992 480.72 142.38 479.861 142.588 478.952L164.652 391.752H347.54L353.14 413.664C344.967 417.689 338.559 424.58 335.139 433.024C331.719 441.469 331.526 450.877 334.596 459.455C337.666 468.033 343.785 475.181 351.786 479.538C359.788 483.895 369.113 485.156 377.984 483.08C386.855 481.004 394.652 475.737 399.89 468.282C405.128 460.827 407.439 451.706 406.385 442.656C405.33 433.607 400.982 425.262 394.171 419.211C387.359 413.161 378.559 409.828 369.448 409.848C368.504 409.848 367.576 409.92 366.648 409.988L339.648 304.188C353.704 297.964 365.957 288.288 375.272 276.06C384.586 263.832 390.658 249.448 392.924 234.244L393.2 232.4H427.884C430.747 236.704 434.676 240.193 439.289 242.526C443.902 244.859 449.041 245.956 454.204 245.71C459.368 245.465 464.379 243.885 468.75 241.125C473.121 238.365 476.702 234.52 479.143 229.963C481.585 225.407 482.803 220.296 482.68 215.128C482.557 209.96 481.096 204.912 478.441 200.478C475.785 196.043 472.025 192.372 467.528 189.823C463.031 187.275 457.95 185.935 452.78 185.936L452.776 185.92ZM392.628 447.048C392.628 451.637 391.268 456.122 388.718 459.937C386.169 463.753 382.546 466.726 378.307 468.482C374.067 470.238 369.403 470.697 364.902 469.802C360.402 468.907 356.268 466.698 353.023 463.453C349.779 460.208 347.569 456.075 346.674 451.574C345.779 447.074 346.238 442.409 347.994 438.17C349.75 433.931 352.724 430.307 356.539 427.758C360.354 425.209 364.84 423.848 369.428 423.848C375.581 423.848 381.482 426.292 385.833 430.643C390.184 434.994 392.628 440.895 392.628 447.048ZM374.18 150.648H352.4V141.636H374.164L374.18 150.648ZM316.648 150.648V141.636H338.4V150.652L316.648 150.648ZM280.884 150.648V141.636H302.648V150.652L280.884 150.648ZM245.116 150.648V141.636H266.884V150.652L245.116 150.648ZM209.352 150.648V141.636H231.116V150.652L209.352 150.648ZM173.584 150.648V141.636H195.352V150.652L173.584 150.648ZM285.536 116.248H355.788C357.296 116.248 358.742 116.847 359.808 117.913C360.874 118.979 361.472 120.425 361.472 121.932C361.472 123.44 360.874 124.885 359.808 125.951C358.742 127.017 357.296 127.616 355.788 127.616H285.536C284.029 127.616 282.583 127.017 281.517 125.951C280.451 124.885 279.852 123.44 279.852 121.932C279.852 120.425 280.451 118.979 281.517 117.913C282.583 116.847 284.029 116.248 285.536 116.248ZM150.528 121.952C150.53 120.445 151.13 119.001 152.196 117.935C153.261 116.87 154.706 116.27 156.212 116.268H226.464C227.972 116.268 229.418 116.867 230.484 117.933C231.55 118.999 232.148 120.445 232.148 121.952C232.148 123.46 231.55 124.905 230.484 125.971C229.418 127.037 227.972 127.636 226.464 127.636H156.212C154.706 127.634 153.261 127.034 152.196 125.969C151.13 124.903 150.53 123.459 150.528 121.952ZM137.82 141.636H159.6V150.652H137.82V141.636ZM103.348 173.236C103.35 170.96 104.255 168.777 105.865 167.167C107.474 165.557 109.656 164.651 111.932 164.648H400.068C402.313 164.697 404.45 165.622 406.021 167.227C407.591 168.832 408.471 170.988 408.471 173.234C408.471 175.48 407.591 177.636 406.021 179.241C404.45 180.846 402.313 181.772 400.068 181.82H111.932C109.657 181.817 107.476 180.912 105.867 179.304C104.258 177.696 103.353 175.515 103.348 173.24V173.236ZM59.2244 231.748C56.0763 231.749 52.9987 230.816 50.3808 229.068C47.7629 227.319 45.7223 224.834 44.5171 221.926C43.3118 219.017 42.996 215.817 43.6097 212.729C44.2234 209.642 45.7389 206.805 47.9646 204.579C50.1904 202.353 53.0263 200.837 56.1138 200.222C59.2014 199.608 62.4017 199.923 65.3102 201.127C68.2187 202.332 70.7047 204.372 72.4538 206.989C74.2028 209.607 75.1364 212.684 75.1364 215.832C75.1321 220.051 73.4545 224.096 70.4714 227.08C67.4884 230.064 63.4436 231.743 59.2244 231.748ZM89.0084 218.4C89.0804 217.556 89.1364 216.708 89.1364 215.848C89.1364 214.988 89.0804 214.144 89.0084 213.3H116.048L116.8 218.4H89.0084ZM343.968 377.76H168.196L185.608 308.96C191.006 310.406 196.528 311.343 202.1 311.76V327.416C202.1 331.447 203.702 335.314 206.552 338.164C209.403 341.015 213.269 342.616 217.3 342.616H294.696C298.728 342.616 302.594 341.015 305.444 338.164C308.295 335.314 309.896 331.447 309.896 327.416V311.768C315.475 311.353 321.001 310.416 326.404 308.968L343.968 377.76ZM216.1 312.084H295.9V327.424C295.9 327.742 295.774 328.048 295.549 328.273C295.324 328.498 295.019 328.624 294.7 328.624H217.304C216.986 328.624 216.681 328.498 216.456 328.273C216.231 328.048 216.104 327.742 216.104 327.424L216.1 312.084ZM303.048 298.084H208.952C190.505 298.003 172.696 291.318 158.751 279.241C144.806 267.163 135.647 250.491 132.932 232.244L127.676 195.844H384.324L379.068 232.244C376.354 250.491 367.195 267.163 353.25 279.241C339.305 291.318 321.496 298.003 303.048 298.084ZM395.2 218.4L395.936 213.3H422.976C422.804 214.996 422.804 216.704 422.976 218.4H395.2ZM452.76 231.764C449.612 231.765 446.535 230.832 443.917 229.084C441.299 227.335 439.258 224.85 438.053 221.942C436.848 219.033 436.532 215.833 437.146 212.745C437.759 209.658 439.275 206.821 441.501 204.595C443.726 202.369 446.562 200.853 449.65 200.238C452.737 199.624 455.938 199.939 458.846 201.143C461.755 202.348 464.241 204.388 465.99 207.005C467.739 209.623 468.672 212.7 468.672 215.848C468.663 220.061 466.985 224.099 464.006 227.079C461.027 230.059 456.99 231.738 452.776 231.748L452.76 231.764Z" fill="#7C782F"/>
<path d="M369.44 455.92C374.343 455.92 378.316 451.946 378.316 447.044C378.316 442.142 374.343 438.168 369.44 438.168C364.538 438.168 360.564 442.142 360.564 447.044C360.564 451.946 364.538 455.92 369.44 455.92Z" fill="#7C782F"/>
<path d="M168.609 65.8921C168.609 69.8921 166.845 70.6641 164.001 74.6921C162.974 76.2109 162.584 78.0719 162.914 79.8753C163.245 81.6786 164.27 83.2803 165.769 84.336C167.268 85.3917 169.121 85.8172 170.93 85.521C172.74 85.2248 174.36 84.2306 175.445 82.7521C177.929 79.2121 182.609 75.3121 182.609 65.8801C182.656 60.2712 180.568 54.8544 176.769 50.7281C175.888 49.9122 175.186 48.9218 174.709 47.8199C174.232 46.718 173.989 45.5288 173.997 44.3281C173.916 42.3762 174.604 40.4707 175.913 39.0201C177 37.5436 177.465 35.6994 177.207 33.8839C176.949 32.0685 175.989 30.4267 174.533 29.3116C173.078 28.1965 171.242 27.6971 169.422 27.9209C167.602 28.1446 165.943 29.0736 164.801 30.5081C161.611 34.4003 159.909 39.3004 160.001 44.3321C159.957 49.9383 162.043 55.3522 165.837 59.4801C166.721 60.2961 167.424 61.2882 167.902 62.3925C168.379 63.4969 168.62 64.689 168.609 65.8921Z" fill="#7C782F"/>
<path d="M208.68 65.892C208.68 69.892 206.912 70.664 204.072 74.692C203.522 75.4424 203.127 76.295 202.91 77.1998C202.693 78.1047 202.659 79.0437 202.809 79.962C202.96 80.8802 203.292 81.7593 203.786 82.5478C204.28 83.3363 204.926 84.0184 205.687 84.5542C206.447 85.09 207.307 85.4687 208.216 85.6683C209.125 85.8678 210.064 85.8842 210.98 85.7164C211.895 85.5486 212.768 85.2 213.546 84.691C214.325 84.182 214.995 83.5228 215.516 82.752C218 79.212 222.68 75.312 222.68 65.88C222.727 60.2731 220.641 54.858 216.844 50.732C215.963 49.9164 215.261 48.9261 214.784 47.8241C214.306 46.7222 214.064 45.5329 214.072 44.332C213.998 42.3777 214.69 40.4716 216 39.02C216.576 38.2916 217.001 37.456 217.251 36.5617C217.501 35.6674 217.57 34.7324 217.455 33.811C217.34 32.8896 217.043 32.0004 216.581 31.195C216.119 30.3896 215.501 29.6842 214.764 29.1199C214.026 28.5556 213.184 28.1435 212.286 27.9079C211.388 27.6722 210.452 27.6175 209.532 27.7471C208.613 27.8766 207.729 28.1878 206.931 28.6625C206.133 29.1372 205.437 29.7659 204.884 30.512C201.698 34.4049 199.997 39.3023 200.084 44.332C200.036 49.938 202.122 55.3524 205.92 59.476C206.801 60.2951 207.501 61.2886 207.976 62.3933C208.451 63.4979 208.691 64.6895 208.68 65.892Z" fill="#7C782F"/>
<path d="M297.929 65.892C297.929 69.892 296.165 70.664 293.321 74.692C292.294 76.2108 291.903 78.0719 292.234 79.8752C292.565 81.6786 293.59 83.2802 295.089 84.3359C296.588 85.3916 298.441 85.8171 300.25 85.5209C302.06 85.2248 303.68 84.2305 304.765 82.752C307.249 79.212 311.929 75.312 311.929 65.88C311.978 60.2727 309.891 54.8569 306.093 50.732C305.212 49.9158 304.511 48.9254 304.033 47.8236C303.556 46.7217 303.313 45.5327 303.321 44.332C303.243 42.3793 303.93 40.4734 305.236 39.02C306.365 37.5454 306.861 35.683 306.616 33.8425C306.371 32.002 305.405 30.3342 303.93 29.206C302.456 28.0778 300.594 27.5815 298.753 27.8265C296.913 28.0714 295.245 29.0374 294.117 30.512C290.932 34.4059 289.232 39.3026 289.317 44.332C289.27 49.9376 291.356 55.3513 295.153 59.476C296.036 60.2932 296.74 61.286 297.218 62.3909C297.696 63.4957 297.938 64.6882 297.929 65.892Z" fill="#7C782F"/>
<path d="M338.001 65.8921C338.001 69.8921 336.265 70.6321 333.389 74.6921C332.85 75.4435 332.465 76.2943 332.257 77.1953C332.049 78.0963 332.021 79.0297 332.176 79.9414C332.33 80.8531 332.664 81.7252 333.157 82.5072C333.651 83.2892 334.294 83.9657 335.051 84.4976C335.807 85.0295 336.662 85.4062 337.565 85.606C338.467 85.8058 339.401 85.8248 340.311 85.6617C341.222 85.4987 342.09 85.1569 342.868 84.6561C343.645 84.1553 344.316 83.5054 344.841 82.7441C349.314 78.2622 351.88 72.2233 352.001 65.8921C352.046 60.2836 349.958 54.8675 346.161 50.7401C345.279 49.9248 344.577 48.9345 344.099 47.8325C343.622 46.7305 343.38 45.541 343.389 44.3401C343.31 42.3879 343.996 40.4821 345.301 39.0281C346.394 37.5516 346.864 35.7042 346.607 33.8848C346.351 32.0653 345.389 30.4196 343.93 29.3028C342.471 28.186 340.631 27.6877 338.808 27.9154C336.985 28.1432 335.324 29.0787 334.185 30.5201C330.998 34.413 329.297 39.3103 329.385 44.3401C329.339 49.9467 331.425 55.3612 335.221 59.4881C336.104 60.3031 336.808 61.2937 337.287 62.3965C337.766 63.4992 338.009 64.6899 338.001 65.8921Z" fill="#7C782F"/>
<path d="M297.68 205.26H214.32C210.635 205.264 207.102 206.73 204.496 209.336C201.89 211.942 200.424 215.475 200.42 219.16V229.364C200.424 233.049 201.89 236.582 204.496 239.187C207.102 241.792 210.635 243.257 214.32 243.26H297.68C301.368 243.262 304.906 241.8 307.517 239.194C310.127 236.588 311.596 233.052 311.6 229.364V219.16C311.596 215.471 310.127 211.935 307.517 209.329C304.907 206.722 301.369 205.259 297.68 205.26ZM214.42 229.364L214.32 219.26H297.6L297.7 229.26L214.42 229.364Z" fill="#7C782F"/>
</svg>
