<svg width="512" height="512" viewBox="0 0 512 512" fill="none" xmlns="http://www.w3.org/2000/svg">
<g clip-path="url(#clip0_5_20)">
<path d="M494.54 296.4V80C494.54 79.96 494.54 79.924 494.54 79.884L500.608 73.812C501.258 73.1622 501.775 72.3906 502.127 71.5413C502.479 70.6919 502.66 69.7815 502.66 68.862C502.66 67.9425 502.479 67.0321 502.127 66.1827C501.775 65.3334 501.258 64.5618 500.608 63.912L487.52 50.824L498.852 39.488C499.502 38.8386 500.018 38.0673 500.37 37.2183C500.722 36.3692 500.904 35.4591 500.904 34.54C500.904 33.6209 500.722 32.7108 500.37 31.8617C500.018 31.0127 499.502 30.2414 498.852 29.592L476.852 7.592C475.539 6.28007 473.758 5.54315 471.902 5.54315C470.046 5.54315 468.265 6.28007 466.952 7.592L155.752 318.816C151.361 315.183 145.775 313.314 140.082 313.573C134.389 313.832 128.995 316.2 124.952 320.216L6.73992 438.4C4.60305 440.535 2.90791 443.071 1.75135 445.861C0.594799 448.652 -0.000488281 451.643 -0.000488281 454.664C-0.000488281 457.685 0.594799 460.676 1.75135 463.467C2.90791 466.257 4.60305 468.793 6.73992 470.928L35.5399 499.728C37.6753 501.864 40.2106 503.558 43.0008 504.714C45.7911 505.87 48.7817 506.465 51.8019 506.465C54.8221 506.465 57.8127 505.87 60.603 504.714C63.3933 503.558 65.9285 501.864 68.0639 499.728L186.22 381.556C190.267 377.53 192.657 372.132 192.917 366.429C193.177 360.726 191.288 355.134 187.624 350.756L222.608 315.768L233.748 326.904C230.769 335.008 230.168 343.794 232.017 352.227C233.866 360.661 238.088 368.39 244.184 374.504C246.476 376.77 249.007 378.782 251.732 380.504L247.932 407.868C247.781 408.945 247.285 409.944 246.52 410.716L233.784 423.448C230.231 427.016 228.237 431.845 228.237 436.88C228.237 441.915 230.231 446.744 233.784 450.312C237.347 453.875 242.179 455.876 247.218 455.876C252.257 455.876 257.089 453.875 260.652 450.312L279.08 431.884C281.994 428.96 283.881 425.171 284.46 421.084L289.364 385.756C296.275 383.667 302.584 379.951 307.762 374.921C312.94 369.891 316.837 363.692 319.126 356.845C321.415 349.998 322.029 342.702 320.916 335.569C319.804 328.435 316.997 321.673 312.732 315.848L333.42 295.156C337.636 290.964 340.98 285.977 343.256 280.484C345.532 274.992 346.696 269.102 346.68 263.156C346.686 259.808 346.324 256.469 345.6 253.2C348.865 253.926 352.199 254.291 355.544 254.288C361.49 254.303 367.379 253.139 372.872 250.862C378.364 248.586 383.351 245.244 387.544 241.028L412.744 215.804C416.961 211.612 420.305 206.626 422.581 201.133C424.858 195.64 426.023 189.75 426.008 183.804C426.009 180.451 425.64 177.108 424.908 173.836C432.358 175.516 440.112 175.283 447.449 173.161C454.785 171.038 461.465 167.094 466.868 161.696C472.095 156.451 476.677 150.6 480.516 144.268V296.4C475.476 297.911 471.057 301.006 467.913 305.225C464.769 309.443 463.068 314.563 463.06 319.824V343.724C463.068 348.985 464.769 354.105 467.913 358.323C471.057 362.542 475.476 365.637 480.516 367.148V385.908C480.516 388.035 479.671 390.075 478.167 391.579C476.663 393.083 474.623 393.928 472.496 393.928C470.369 393.928 468.329 393.083 466.825 391.579C465.321 390.075 464.476 388.035 464.476 385.908V370.428C464.476 369.064 464.077 367.731 463.33 366.59C462.582 365.45 461.518 364.552 460.268 364.008L448.768 359.008C447.065 358.265 445.137 358.23 443.408 358.908C441.679 359.587 440.291 360.925 439.548 362.628C438.805 364.331 438.77 366.259 439.448 367.988C440.127 369.717 441.465 371.105 443.168 371.848L450.46 375.02V385.908C450.46 391.748 452.78 397.349 456.909 401.478C461.039 405.608 466.64 407.928 472.48 407.928C478.32 407.928 483.921 405.608 488.05 401.478C492.18 397.349 494.5 391.748 494.5 385.908V367.168C499.548 365.664 503.977 362.572 507.129 358.352C510.282 354.132 511.99 349.008 512 343.74V319.84C511.994 314.576 510.293 309.453 507.148 305.231C504.003 301.009 499.582 297.913 494.54 296.4ZM478.68 75.96L470.54 67.82L477.608 60.752L485.748 68.892L478.68 75.96ZM471.88 22.452L484 34.568L177.876 340.684L165.764 328.568L471.88 22.452ZM402.872 151.768L399.34 155.3L391.2 147.164L398.268 140.096L406.412 148.236L402.88 151.764L402.872 151.768ZM318.92 219.436L327.064 227.6L323.532 231.128L320 234.648L311.86 226.504L318.92 219.436ZM176.32 371.656L58.1639 489.812C56.4485 491.447 54.1697 492.359 51.7999 492.359C49.4302 492.359 47.1513 491.447 45.4359 489.812L16.6359 461.012C15.8003 460.177 15.1374 459.185 14.6852 458.093C14.233 457.002 14.0002 455.832 14.0002 454.65C14.0002 453.468 14.233 452.298 14.6852 451.207C15.1374 450.115 15.8003 449.123 16.6359 448.288L134.8 330.128C136.49 328.444 138.78 327.498 141.166 327.498C143.552 327.498 145.841 328.444 147.532 330.128L176.332 358.928C177.168 359.764 177.831 360.756 178.283 361.848C178.735 362.94 178.968 364.11 178.968 365.292C178.968 366.474 178.735 367.644 178.283 368.736C177.831 369.828 177.168 370.82 176.332 371.656H176.32ZM240.848 314.188L232.508 305.848L239.6 298.78L247.936 307.12L247.856 307.192C246.647 308.166 245.488 309.201 244.384 310.292C244.328 310.348 244.26 310.396 244.204 310.452C244.14 310.52 244.084 310.592 244.02 310.66C242.939 311.752 241.915 312.899 240.952 314.096L240.848 314.188ZM269.2 421.976L250.756 440.4C249.804 441.308 248.538 441.815 247.222 441.815C245.906 441.815 244.64 441.308 243.688 440.4C242.754 439.46 242.23 438.189 242.23 436.864C242.23 435.539 242.754 434.268 243.688 433.328L256.4 420.6C259.32 417.672 261.209 413.875 261.784 409.78L266.228 377.756L269.568 353.676C269.753 352.363 270.452 351.177 271.511 350.378C272.57 349.579 273.902 349.233 275.216 349.416C276.527 349.601 277.712 350.297 278.51 351.354C279.309 352.41 279.656 353.74 279.476 355.052L270.576 419.148C270.431 420.213 269.949 421.205 269.2 421.976ZM298.32 364.572C296.322 366.57 294.061 368.288 291.6 369.676L293.364 356.96C293.707 354.489 293.56 351.974 292.931 349.559C292.302 347.144 291.204 344.877 289.699 342.887C288.194 340.897 286.311 339.223 284.159 337.96C282.007 336.697 279.627 335.871 277.156 335.528C274.684 335.185 272.17 335.332 269.755 335.961C267.34 336.59 265.073 337.688 263.083 339.193C261.093 340.698 259.419 342.581 258.156 344.733C256.893 346.885 256.067 349.265 255.724 351.736L253.96 364.444C249.619 360.052 246.675 354.472 245.502 348.409C244.328 342.346 244.976 336.071 247.364 330.376C249.752 324.681 253.773 319.821 258.921 316.409C264.068 312.996 270.11 311.185 276.286 311.203C282.461 311.22 288.493 313.067 293.621 316.509C298.748 319.951 302.741 324.834 305.097 330.543C307.452 336.252 308.064 342.53 306.855 348.586C305.646 354.643 302.67 360.205 298.304 364.572H298.32ZM323.544 285.232L302.848 305.928C296.835 301.551 289.838 298.721 282.473 297.687C275.108 296.653 267.601 297.448 260.616 300L249.476 288.88L301.952 236.4L315.044 249.492C315.693 250.142 316.465 250.658 317.314 251.011C318.163 251.363 319.073 251.544 319.992 251.544C320.911 251.544 321.821 251.363 322.67 251.011C323.519 250.658 324.29 250.142 324.94 249.492L327.9 246.536C331.649 252.532 333.257 259.62 332.463 266.647C331.67 273.673 328.52 280.224 323.528 285.232H323.544ZM402.888 205.888L377.664 231.112C372.656 236.103 366.106 239.252 359.08 240.045C352.054 240.838 344.967 239.229 338.972 235.48L341.928 232.528C343.24 231.215 343.977 229.434 343.977 227.578C343.977 225.722 343.24 223.941 341.928 222.628L328.836 209.536L381.296 157.06L394.4 170.152C395.049 170.802 395.821 171.318 396.67 171.671C397.519 172.023 398.429 172.204 399.348 172.204C400.267 172.204 401.177 172.023 402.026 171.671C402.875 171.318 403.646 170.802 404.296 170.152L407.26 167.192C411.027 173.182 412.645 180.275 411.85 187.307C411.055 194.338 407.897 200.89 402.888 205.888ZM457.008 151.768C452.007 156.773 445.456 159.932 438.426 160.727C431.395 161.522 424.304 159.906 418.312 156.144L421.268 153.184C421.918 152.534 422.435 151.763 422.787 150.913C423.139 150.064 423.32 149.153 423.32 148.234C423.32 147.315 423.139 146.404 422.787 145.555C422.435 144.705 421.918 143.934 421.268 143.284L408.18 130.196L460.656 77.716L473.748 90.808C474.582 91.6599 475.625 92.2787 476.772 92.6029C477.919 92.9271 479.131 92.9454 480.288 92.656V94.96C480.333 105.496 478.299 115.937 474.302 125.686C470.304 135.434 464.422 144.297 456.992 151.768H457.008ZM498 343.74C498.027 345.131 497.777 346.513 497.263 347.805C496.75 349.098 495.984 350.275 495.01 351.268C494.036 352.261 492.874 353.05 491.592 353.589C490.31 354.127 488.933 354.405 487.542 354.405C486.151 354.405 484.774 354.127 483.492 353.589C482.21 353.05 481.047 352.261 480.074 351.268C479.1 350.275 478.334 349.098 477.82 347.805C477.307 346.513 477.057 345.131 477.084 343.74V319.84C477.086 317.067 478.188 314.408 480.148 312.447C482.109 310.486 484.767 309.383 487.54 309.38C490.313 309.383 492.972 310.486 494.933 312.447C496.894 314.408 497.997 317.067 498 319.84V343.74Z" fill="#7C782F"/>
</g>
<defs>
<clipPath id="clip0_5_20">
<rect width="512" height="512" fill="white"/>
</clipPath>
</defs>
</svg>
