<svg width="512" height="512" viewBox="0 0 512 512" fill="none" xmlns="http://www.w3.org/2000/svg">
<g clip-path="url(#clip0_5_9)">
<path d="M103.164 303.436C104.032 304.266 105.099 304.859 106.263 305.157C107.427 305.454 108.647 305.447 109.808 305.136L333.56 245.2C334.82 244.862 335.961 244.178 336.853 243.226C337.745 242.274 338.353 241.091 338.609 239.812C338.865 238.532 338.758 237.207 338.301 235.985C337.843 234.763 337.053 233.693 336.02 232.896L242.556 160.896C241.703 160.239 240.71 159.787 239.654 159.575C238.598 159.364 237.508 159.398 236.468 159.676L128.736 188.508C127.496 188.841 126.371 189.508 125.485 190.436C124.598 191.364 123.983 192.518 123.708 193.772L101.156 296.88C100.9 298.053 100.95 299.273 101.302 300.421C101.654 301.569 102.295 302.607 103.164 303.436ZM119.032 280.68C121.25 282.44 123.305 284.396 125.172 286.524L117.292 288.636L119.032 280.68ZM125.432 251.4C137.273 257.786 147.178 267.239 154.112 278.768L139.968 282.56C135.266 275.821 129.257 270.096 122.3 265.724L125.432 251.4ZM294.656 218.684L294.972 218.924C290.947 226.351 288.504 234.531 287.796 242.948L273.66 246.736C273.904 233.936 277.403 221.409 283.828 210.336L294.656 218.684ZM302.496 239.012C303.26 235.071 304.525 231.244 306.26 227.624L316.26 235.324L302.496 239.012ZM136.476 200.928L236.748 174.06L272.7 201.76C263.799 216.417 259.302 233.326 259.748 250.468L168 275.048C159.115 258.647 145.296 245.456 128.5 237.344L136.476 200.928Z" fill="#7C782F"/>
<path d="M395.5 357.504H368.5C366.806 357.502 365.169 358.118 363.896 359.236L350.296 371.128H315.624C313.768 371.129 311.988 371.867 310.676 373.18L288.552 395.304C287.883 395.95 287.35 396.722 286.983 397.576C286.616 398.43 286.423 399.348 286.414 400.278C286.406 401.207 286.583 402.129 286.935 402.989C287.287 403.85 287.806 404.631 288.463 405.289C289.12 405.946 289.902 406.466 290.762 406.818C291.622 407.17 292.544 407.348 293.473 407.34C294.403 407.332 295.321 407.139 296.176 406.772C297.03 406.406 297.802 405.872 298.448 405.204L318.524 385.128H352.924C354.619 385.129 356.256 384.515 357.532 383.4L371.132 371.504H395.504C397.361 371.504 399.141 370.767 400.454 369.454C401.767 368.141 402.504 366.361 402.504 364.504C402.504 362.648 401.767 360.867 400.454 359.554C399.141 358.242 397.357 357.504 395.5 357.504Z" fill="#7C782F"/>
<path d="M505 255.004H472.748C471.54 255.003 470.352 255.315 469.301 255.909C468.249 256.504 467.37 257.36 466.748 258.396L427.448 323.688H397.148C417.101 311.058 431.249 291.05 436.507 268.028C441.765 245.006 437.705 220.84 425.214 200.8C412.723 180.76 392.813 166.472 369.829 161.055C346.845 155.637 322.65 159.528 302.524 171.88L262.864 141.32L264.864 106.52L316.4 92.688C318.192 92.2053 319.72 91.0312 320.648 89.4233C321.575 87.8155 321.827 85.9053 321.348 84.112L314.148 57.192C313.911 56.3034 313.501 55.4703 312.942 54.7403C312.383 54.0103 311.685 53.3978 310.889 52.9378C310.093 52.4778 309.214 52.1794 308.302 52.0597C307.39 51.9399 306.464 52.0012 305.576 52.24L229.676 72.58C228.253 72.9601 226.987 73.7795 226.058 74.9216C225.128 76.0636 224.583 77.4699 224.5 78.94L221.3 134.852L127.36 160.024L120.444 150.32C125.6 150.375 130.621 148.669 134.676 145.483C138.731 142.297 141.577 137.823 142.744 132.8L145.508 121.008C145.926 119.205 145.614 117.31 144.64 115.736C143.666 114.162 142.108 113.038 140.308 112.608L118.156 107.408C117.033 107.145 115.862 107.163 114.748 107.46L44.8919 126.172C44.0039 126.41 43.1714 126.82 42.4419 127.379C41.7125 127.939 41.1004 128.636 40.6405 129.432C40.1807 130.228 39.8821 131.107 39.7619 132.018C39.6417 132.93 39.7022 133.856 39.9399 134.744L44.5119 151.812C45.4983 155.468 47.6606 158.697 50.6651 161.002C53.6696 163.307 57.3492 164.559 61.1359 164.564C62.6366 164.564 64.1309 164.367 65.5799 163.976L76.6519 161.012L96.3119 188.612L87.6239 228.34C68.0944 228.748 49.2351 235.536 33.926 247.669C18.6169 259.801 7.69923 276.611 2.8403 295.531C-2.01862 314.45 -0.551796 334.441 7.01679 352.448C14.5854 370.456 27.8397 385.492 44.7559 395.26C50.2226 398.41 56.005 400.978 62.0079 402.92L22.5759 417.452C21.1151 417.992 19.8764 419.004 19.0559 420.328L1.05588 449.32C0.399673 450.379 0.03834 451.595 0.00923333 452.841C-0.0198734 454.086 0.284303 455.317 0.890314 456.406C1.49632 457.495 2.38217 458.402 3.45627 459.034C4.53037 459.666 5.75373 459.999 6.99988 460H505C505.919 460.001 506.83 459.82 507.679 459.468C508.529 459.117 509.301 458.601 509.951 457.951C510.601 457.301 511.117 456.529 511.468 455.679C511.82 454.83 512 453.919 512 453V262C512 261.081 511.819 260.171 511.467 259.322C511.115 258.473 510.599 257.701 509.949 257.052C509.299 256.402 508.528 255.887 507.678 255.535C506.829 255.184 505.919 255.003 505 255.004ZM329.6 175.292C339.182 172.699 349.182 172.021 359.026 173.298C368.871 174.576 378.367 177.782 386.97 182.735C395.573 187.688 403.115 194.289 409.163 202.161C415.211 210.033 419.647 219.02 422.216 228.609C424.786 238.198 425.438 248.199 424.136 258.041C422.835 267.882 419.604 277.37 414.63 285.96C409.656 294.551 403.036 302.076 395.149 308.105C387.262 314.133 378.263 318.547 368.668 321.092C362.655 322.709 356.466 323.581 350.24 323.688H349.944C336.795 323.862 323.831 320.585 312.345 314.182C300.859 307.779 291.254 298.476 284.488 287.2L298.64 283.408C305.091 292.639 313.951 299.923 324.255 304.468C334.559 309.012 345.912 310.642 357.079 309.18C368.245 307.718 378.797 303.221 387.584 296.178C396.371 289.134 403.058 279.815 406.915 269.234C410.773 258.654 411.653 247.218 409.461 236.171C407.268 225.125 402.087 214.892 394.482 206.587C386.876 198.281 377.138 192.221 366.327 189.068C355.515 185.914 344.046 185.787 333.168 188.7C331.072 189.264 329.01 189.948 326.992 190.748L314.508 181.124C319.315 178.646 324.375 176.691 329.6 175.292ZM270.532 290.924C277.723 304.255 288.196 315.532 300.96 323.688H292.56C291.004 323.689 289.493 324.207 288.264 325.16L200.6 393.24H137.472C150.524 384.985 161.204 373.476 168.462 359.844C175.72 346.211 179.306 330.926 178.868 315.488L270.532 290.924ZM372.908 206.988C378.9 210.432 384.069 215.141 388.056 220.786C392.042 226.432 394.751 232.879 395.992 239.677C397.233 246.476 396.978 253.464 395.243 260.154C393.508 266.844 390.336 273.076 385.948 278.415C381.56 283.754 376.06 288.073 369.833 291.07C363.605 294.067 356.799 295.671 349.888 295.77C342.978 295.868 336.129 294.46 329.818 291.641C323.508 288.823 317.887 284.664 313.348 279.452L361.192 266.652C365.595 265.479 369.581 263.097 372.7 259.776C375.818 256.454 377.945 252.326 378.838 247.858C379.732 243.391 379.356 238.762 377.755 234.497C376.153 230.231 373.389 226.5 369.776 223.724L340.768 201.372C351.808 199.367 363.202 201.358 372.908 206.988ZM61.9559 150.452C61.5498 150.561 61.1263 150.589 60.7095 150.534C60.2927 150.479 59.8908 150.342 59.5268 150.132C59.1628 149.922 58.8437 149.642 58.5879 149.308C58.3321 148.975 58.1445 148.594 58.0359 148.188L55.2759 137.884L116.652 121.436L130.28 124.636L129.112 129.6C128.582 131.861 127.176 133.819 125.204 135.043C123.231 136.268 120.853 136.66 118.592 136.132C117.468 135.872 116.298 135.892 115.184 136.188L61.9559 150.452ZM91.0839 157.144L105.388 153.312L118.78 172.112C119.609 173.273 120.772 174.153 122.114 174.635C123.456 175.118 124.914 175.179 126.292 174.812L229.808 147.076C231.23 146.695 232.496 145.874 233.426 144.732C234.355 143.589 234.9 142.182 234.984 140.712L238.184 84.8L302.42 67.6L306.02 80.996L256.348 94.284C254.926 94.6652 253.66 95.4849 252.731 96.6268C251.802 97.7686 251.256 99.1743 251.172 100.644L248.676 144.208C248.611 145.345 248.824 146.481 249.297 147.517C249.77 148.552 250.49 149.457 251.392 150.152L361.232 234.8C362.77 235.987 363.946 237.58 364.627 239.399C365.308 241.219 365.466 243.192 365.085 245.097C364.704 247.002 363.799 248.763 362.47 250.18C361.142 251.598 359.444 252.616 357.568 253.12L96.7999 322.976C95.0728 323.444 93.2542 323.458 91.52 323.017C89.7858 322.576 88.1947 321.696 86.9004 320.46C85.6061 319.225 84.6525 317.676 84.1318 315.964C83.6111 314.252 83.5409 312.435 83.9279 310.688L110.652 188.56C110.861 187.605 110.868 186.617 110.671 185.659C110.475 184.701 110.08 183.796 109.512 183L91.0839 157.144ZM77.2599 330.58C81.7755 334.921 87.7959 337.347 94.0599 337.348C96.2212 337.348 98.3731 337.063 100.46 336.5L136.124 326.944C134.472 335.256 130.629 342.976 124.99 349.303C119.352 355.631 112.125 360.336 104.057 362.931C95.9894 365.526 87.3745 365.916 79.1049 364.062C70.8353 362.208 63.2117 358.177 57.024 352.386C50.8362 346.595 46.3093 339.255 43.9121 331.126C41.515 322.998 41.3348 314.376 43.3902 306.154C45.4456 297.932 49.6618 290.409 55.6022 284.365C61.5425 278.32 68.991 273.974 77.1759 271.776C77.4959 271.692 77.8399 271.652 78.1639 271.572L70.2639 307.696C69.3525 311.79 69.5179 316.05 70.7441 320.061C71.9702 324.071 74.2152 327.696 77.2599 330.58ZM16.5919 337.292C13.7122 326.514 13.256 315.232 15.256 304.257C17.256 293.282 21.6626 282.886 28.159 273.817C34.6554 264.748 43.0803 257.23 52.8281 251.805C62.576 246.38 73.4047 243.182 84.5359 242.44L81.4119 256.712C78.7601 257.049 76.1341 257.565 73.5519 258.256C62.6543 261.162 52.7635 267.003 44.958 275.144C37.1524 283.285 31.7317 293.413 29.2868 304.423C26.842 315.433 27.4668 326.903 31.0931 337.583C34.7194 348.262 41.2081 357.741 49.8517 364.986C58.4954 372.231 68.9621 376.964 80.1109 378.669C91.2597 380.374 102.663 378.985 113.076 374.654C123.49 370.323 132.515 363.216 139.167 354.109C145.819 345.001 149.843 334.242 150.8 323.004L164.96 319.2C164.611 337.384 157.708 354.83 145.52 368.329C133.333 381.829 116.681 390.473 98.6277 392.673C80.5742 394.873 62.3335 390.481 47.2609 380.303C32.1883 370.125 21.2975 354.848 16.5919 337.28V337.292ZM498 446H19.5999L29.6959 429.744L90.7479 407.244H203C204.555 407.244 206.066 406.725 207.292 405.768L294.964 337.688H348.932H431.408C432.616 337.689 433.803 337.377 434.855 336.783C435.906 336.188 436.786 335.331 437.408 334.296L476.708 269.004H498V446Z" fill="#7C782F"/>
</g>
<defs>
<clipPath id="clip0_5_9">
<rect width="512" height="512" fill="white"/>
</clipPath>
</defs>
</svg>
