<svg width="512" height="512" viewBox="0 0 512 512" fill="none" xmlns="http://www.w3.org/2000/svg">
<path d="M250.532 161.952C237 119.626 216.478 79.8647 189.816 44.316C184.302 36.4948 176.99 30.113 168.495 25.7079C160 21.3028 150.571 19.0035 141.002 19.0035C131.433 19.0035 122.004 21.3028 113.509 25.7079C105.014 30.113 97.7015 36.4948 92.188 44.316C65.5272 79.8632 45.0037 119.622 31.468 161.944C26.5134 178.004 22.9745 194.467 20.892 211.144C19.6384 221.328 19.0065 231.579 19 241.84C19 270.444 19.74 294.864 21.256 316.496C22.556 334.752 24.344 350.66 26.732 365.132C40.844 451.176 78.22 493 141 493C203.78 493 241.156 451.176 255.264 365.14C257.664 350.66 259.444 334.74 260.744 316.492C262.26 294.864 263 270.444 263 241.84C262.993 231.579 262.362 221.328 261.108 211.144C259.025 194.469 255.486 178.009 250.532 161.952ZM246.776 315.504C245.512 333.324 243.768 348.812 241.452 362.868C228.456 442.096 196.54 479 141 479C85.46 479 53.544 442.096 40.548 362.86C38.232 348.8 36.488 333.324 35.224 315.508C33.728 294.212 33 270.112 33 241.84C33.0096 232.151 33.6108 222.472 34.8 212.856C36.7813 196.992 40.1489 181.332 44.864 166.056C57.9433 125.222 77.7652 86.8656 103.508 52.576C107.721 46.5341 113.331 41.5995 119.861 38.192C126.392 34.7845 133.648 33.0051 141.014 33.0051C148.38 33.0051 155.636 34.7845 162.167 38.192C168.697 41.5995 174.307 46.5341 178.52 52.576C204.263 86.8647 224.084 125.222 237.16 166.056C241.875 181.332 245.242 196.992 247.224 212.856C248.409 222.472 249.006 232.151 249.012 241.84C249 270.112 248.272 294.212 246.776 315.504Z" fill="#7C782F"/>
<path d="M225.28 161.784C212.426 124.731 193.934 89.8831 170.456 58.468C167.166 53.6969 162.767 49.7962 157.636 47.1017C152.506 44.4071 146.797 42.9993 141.002 42.9993C135.207 42.9993 129.498 44.4071 124.368 47.1017C119.237 49.7962 114.838 53.6969 111.548 58.468C88.0682 89.8811 69.5748 124.728 56.72 161.78C51.3087 177.794 47.4339 194.287 45.148 211.036C43.7248 221.241 43.0071 231.532 43 241.836C43 270.376 43.8 294.804 45.42 316.516C46.756 334.516 48.696 350.916 51.184 365.196L51.22 365.38V365.428C63.556 436.084 92.08 469 141 469C189.92 469 218.444 436.084 230.772 365.432V365.384L230.8 365.2C233.288 350.912 235.228 334.532 236.564 316.524C238.192 294.808 238.964 270.38 238.964 241.84C238.957 231.551 238.242 221.275 236.824 211.084C234.549 194.322 230.684 177.814 225.28 161.784ZM64.056 357C62.428 346.652 61.072 335.276 60.016 323H222C220.944 335.276 219.6 346.652 217.96 357H64.056ZM68.52 171H213.48C217.005 182.131 219.759 193.491 221.724 205H60.276C62.2399 193.491 64.9944 182.131 68.52 171ZM223.72 219C224.564 226.584 224.991 234.209 225 241.84C225 267.224 224.36 289.26 223.068 309H58.932C57.64 289.26 57 267.224 57 241.84C57.0097 234.209 57.437 226.584 58.28 219H223.72ZM122.852 66.728C124.841 63.7363 127.538 61.2826 130.705 59.5854C133.871 57.8882 137.408 57.0001 141 57.0001C144.592 57.0001 148.129 57.8882 151.295 59.5854C154.462 61.2826 157.159 63.7363 159.148 66.728C179.738 94.3964 196.411 124.774 208.696 157H73.304C85.5901 124.774 102.263 94.397 122.852 66.728ZM141 455C100.784 455 78.264 429.7 66.548 371H215.452C203.736 429.7 181.2 455 141 455Z" fill="#7C782F"/>
<path d="M171.556 132.072C172.45 133.637 173.912 134.798 175.64 135.311C177.368 135.825 179.227 135.653 180.83 134.83C182.434 134.007 183.659 132.598 184.249 130.895C184.839 129.192 184.75 127.327 184 125.688C176.877 111.87 168.929 98.4922 160.2 85.628C159.685 84.8663 159.025 84.2135 158.258 83.707C157.49 83.2004 156.631 82.8499 155.728 82.6755C154.825 82.5011 153.897 82.5062 152.996 82.6906C152.095 82.875 151.24 83.2349 150.478 83.75C149.716 84.265 149.064 84.925 148.557 85.6924C148.05 86.4597 147.7 87.3193 147.526 88.222C147.351 89.1248 147.356 90.0531 147.541 90.9539C147.725 91.8547 148.085 92.7103 148.6 93.472C157.02 105.866 164.685 118.756 171.556 132.072Z" fill="#7C782F"/>
<path d="M368.4 199.972C366.355 198.759 364.661 197.036 363.482 194.972C362.304 192.908 361.681 190.573 361.676 188.196V57H363.84C364.759 57.0005 365.67 56.8198 366.519 56.4682C367.369 56.1166 368.141 55.601 368.791 54.9509C369.441 54.3008 369.956 53.5289 370.308 52.6794C370.66 51.8299 370.84 50.9194 370.84 50V26C370.84 25.0806 370.66 24.1701 370.308 23.3206C369.956 22.4711 369.441 21.6992 368.791 21.0491C368.141 20.399 367.369 19.8834 366.519 19.5318C365.67 19.1802 364.759 18.9995 363.84 19H321.5C319.643 19 317.863 19.7375 316.55 21.0503C315.237 22.363 314.5 24.1435 314.5 26V50C314.5 51.8565 315.237 53.637 316.55 54.9497C317.863 56.2625 319.643 57 321.5 57H323.668V188.2C323.662 190.577 323.038 192.912 321.859 194.977C320.68 197.041 318.985 198.763 316.94 199.976C312.805 202.432 309.377 205.919 306.994 210.097C304.61 214.274 303.351 218.998 303.34 223.808V327.668C303.348 334.915 306.231 341.863 311.356 346.987C316.481 352.111 323.429 354.993 330.676 355H354.676C361.921 354.99 368.867 352.108 373.989 346.984C379.112 341.86 381.992 334.913 382 327.668V223.804C381.989 218.994 380.73 214.27 378.346 210.093C375.962 205.915 372.535 202.428 368.4 199.972ZM328.5 33H356.832V43H328.5V33ZM368 327.668C367.996 331.203 366.59 334.591 364.09 337.09C361.591 339.59 358.202 340.996 354.668 341H349.668V256C349.668 254.143 348.93 252.363 347.618 251.05C346.305 249.737 344.524 249 342.668 249C340.811 249 339.031 249.737 337.718 251.05C336.405 252.363 335.668 254.143 335.668 256V341H330.668C327.133 340.997 323.743 339.591 321.243 337.092C318.743 334.592 317.336 331.203 317.332 327.668V223.804C317.338 221.427 317.961 219.092 319.141 217.027C320.32 214.963 322.015 213.241 324.06 212.028C328.195 209.572 331.622 206.085 334.006 201.907C336.39 197.73 337.649 193.006 337.66 188.196V57H347.66V188.2C347.67 193.01 348.928 197.735 351.312 201.912C353.696 206.09 357.124 209.577 361.26 212.032C363.307 213.242 365.004 214.964 366.185 217.027C367.367 219.091 367.992 221.426 368 223.804V327.668Z" fill="#7C782F"/>
<path d="M465.668 157H441.668C434.421 157.007 427.473 159.889 422.348 165.013C417.223 170.137 414.341 177.085 414.332 184.332V288.196C414.343 293.006 415.602 297.73 417.986 301.907C420.37 306.085 423.797 309.572 427.932 312.028C429.977 313.241 431.672 314.963 432.851 317.027C434.031 319.092 434.654 321.427 434.66 323.804V455.004H432.492C430.636 455.004 428.855 455.742 427.542 457.054C426.23 458.367 425.492 460.147 425.492 462.004V486.004C425.492 487.861 426.23 489.641 427.542 490.954C428.855 492.266 430.636 493.004 432.492 493.004H474.824C475.743 493.005 476.654 492.824 477.503 492.472C478.353 492.121 479.125 491.605 479.775 490.955C480.425 490.305 480.941 489.533 481.292 488.683C481.644 487.834 481.825 486.923 481.824 486.004V462.004C481.825 461.085 481.644 460.174 481.292 459.325C480.941 458.475 480.425 457.703 479.775 457.053C479.125 456.403 478.353 455.887 477.503 455.536C476.654 455.184 475.743 455.003 474.824 455.004H472.66V323.804C472.665 321.427 473.288 319.092 474.467 317.028C475.645 314.964 477.34 313.241 479.384 312.028C483.519 309.572 486.946 306.085 489.33 301.907C491.714 297.73 492.973 293.006 492.984 288.196V184.332C492.977 177.088 490.097 170.143 484.976 165.019C479.855 159.896 472.912 157.012 465.668 157ZM467.832 479H439.5V469H467.832V479ZM479 288.2C478.995 290.577 478.372 292.912 477.194 294.976C476.015 297.04 474.32 298.763 472.276 299.976C468.14 302.431 464.712 305.918 462.328 310.096C459.944 314.273 458.686 318.998 458.676 323.808V455.008H448.676V323.808C448.665 318.998 447.406 314.274 445.022 310.097C442.638 305.919 439.211 302.432 435.076 299.976C433.031 298.763 431.336 297.041 430.157 294.977C428.977 292.912 428.354 290.577 428.348 288.2V184.332C428.352 180.797 429.759 177.408 432.259 174.908C434.759 172.409 438.149 171.003 441.684 171H446.684V256C446.684 257.857 447.422 259.637 448.734 260.95C450.047 262.262 451.828 263 453.684 263C455.541 263 457.321 262.262 458.634 260.95C459.947 259.637 460.684 257.857 460.684 256V171H465.684C469.219 171.004 472.607 172.41 475.107 174.91C477.606 177.409 479.012 180.797 479.016 184.332L479 288.2Z" fill="#7C782F"/>
</svg>
